<svg width="54" height="46" viewBox="0 0 54 46" xmlns="http://www.w3.org/2000/svg"><g transform="translate(1)" fill="none" fill-rule="evenodd"><rect stroke="#343D42" stroke-width="2" y="19" width="52" height="26" rx="4"/><path d="M9.198 37c1.124 0 2.01-.255 2.655-.764.645-.51.968-1.206.968-2.09 0-.749-.237-1.357-.712-1.824-.475-.467-1.279-.882-2.411-1.244a7.848 7.848 0 01-1.018-.391c-.238-.118-.408-.25-.513-.398a.95.95 0 01-.156-.562c0-.362.136-.64.406-.833.271-.194.673-.29 1.206-.29.408 0 .839.065 1.293.195.454.13.86.301 1.218.512l.262-1.604a5.225 5.225 0 00-1.337-.518A6.2 6.2 0 009.56 27c-.69 0-1.295.116-1.811.347-.516.232-.91.554-1.18.966-.271.413-.407.888-.407 1.427 0 .75.221 1.35.663 1.805.44.455 1.178.846 2.21 1.175.734.235 1.231.454 1.494.656a.956.956 0 01.393.796c0 .387-.156.688-.468.902-.313.215-.756.322-1.33.322a5.615 5.615 0 01-1.537-.227c-.533-.151-1-.358-1.4-.618L6 36.205c.341.235.812.427 1.412.574.6.147 1.195.221 1.786.221zm11.085 0c.966 0 1.834-.23 2.604-.688a4.82 4.82 0 001.787-1.825c.42-.757.63-1.586.63-2.487 0-.976-.226-1.846-.68-2.607a4.75 4.75 0 00-1.818-1.768c-.758-.417-1.599-.625-2.523-.625-.966 0-1.832.23-2.599.688a4.834 4.834 0 00-1.78 1.825 5.039 5.039 0 00-.63 2.487c0 .976.226 1.846.68 2.607a4.75 4.75 0 001.818 1.768 5.125 5.125 0 002.51.625zm0-1.717c-.6 0-1.13-.147-1.593-.442a2.955 2.955 0 01-1.068-1.187A3.628 3.628 0 0117.247 32c0-.648.135-1.223.406-1.723.27-.501.635-.886 1.093-1.156.458-.27.97-.404 1.537-.404.6 0 1.132.147 1.599.442.466.295.824.69 1.074 1.187.25.497.375 1.048.375 1.654 0 .64-.135 1.212-.406 1.717-.27.505-.637.892-1.1 1.162-.462.27-.976.404-1.542.404zm14.145 1.515v-1.59h-4.297v-8.006h-1.912v9.596h6.21zm6.225 0c1.69 0 3.005-.42 3.942-1.263.937-.841 1.405-2.024 1.405-3.548 0-1.515-.456-2.691-1.368-3.529-.912-.837-2.192-1.256-3.841-1.256h-3.636v9.596h3.498zm-.037-1.553h-1.562v-6.49h1.574c2.266 0 3.398 1.082 3.398 3.245 0 2.163-1.137 3.245-3.41 3.245z" fill="#343D42" fill-rule="nonzero"/><path d="M29.126 4.751L37 19h0-21l7.874-14.249a3 3 0 015.252 0z" stroke="#343D42" stroke-width="2"/><circle stroke="#343D42" stroke-width="1.5" fill="#FFF" cx="26.5" cy="4.5" r="2.5"/></g></svg>