<svg width="54" height="46" viewBox="0 0 54 46" xmlns="http://www.w3.org/2000/svg"><g transform="translate(1)" fill="none" fill-rule="evenodd"><rect stroke="#343D42" stroke-width="2" y="19" width="52" height="26" rx="4"/><path d="M9.527 37c1.24 0 2.217-.255 2.929-.764.711-.51 1.067-1.206 1.067-2.09 0-.749-.261-1.357-.785-1.824-.524-.467-1.41-.882-2.66-1.244a9.214 9.214 0 01-1.122-.391c-.262-.118-.45-.25-.565-.398a.887.887 0 01-.173-.562c0-.362.15-.64.448-.833.299-.194.742-.29 1.33-.29.45 0 .925.065 1.426.195.5.13.949.301 1.344.512l.289-1.604a6.13 6.13 0 00-1.474-.518A7.507 7.507 0 009.927 27c-.762 0-1.428.116-1.998.347-.57.232-1.003.554-1.302.966a2.37 2.37 0 00-.448 1.427c0 .75.244 1.35.73 1.805.487.455 1.3.846 2.44 1.175.808.235 1.357.454 1.646.656.29.202.434.467.434.796 0 .387-.172.688-.517.902-.344.215-.833.322-1.467.322a6.787 6.787 0 01-1.695-.227 5.916 5.916 0 01-1.543-.618L6 36.205c.377.235.896.427 1.557.574a9.041 9.041 0 001.97.221zm8.217-.202l1.006-2.525h4.216l.993 2.525h2.232l-4.162-9.596h-2.232l-4.161 9.596h2.108zm4.644-4.015h-3.073l1.53-3.864 1.543 3.864zm13.494 4.015v-1.59h-4.74v-8.006h-2.108v9.596h6.848zm10.118 0v-1.616h-5.07V32.72h4.312v-1.604H40.93v-2.298h4.878v-1.616H38.89v9.596H46z" fill="#343D42" fill-rule="nonzero"/><path d="M27.126 4.751L35 19h0-21l7.874-14.249a3 3 0 015.252 0z" stroke="#343D42" stroke-width="2"/><circle stroke="#343D42" stroke-width="1.5" fill="#FFF" cx="24.5" cy="4.5" r="2.5"/></g></svg>