<svg width="54" height="46" viewBox="0 0 54 46" xmlns="http://www.w3.org/2000/svg"><g transform="translate(1)" fill="none" fill-rule="evenodd"><rect stroke="#343D42" stroke-width="2" y="19" width="52" height="26" rx="4"/><path d="M7.875 37v-3.566h.937c.086 0 .178-.002.276-.006.099-.005.22-.011.366-.02L11.547 37h2.21l-2.608-4.092c.523-.29.925-.669 1.207-1.138.283-.47.424-.998.424-1.586 0-.991-.32-1.77-.963-2.335-.642-.566-1.524-.849-2.645-.849H6v10h1.875zm.963-5.184h-.963v-3.198h1.027c.642 0 1.128.134 1.458.402.33.267.494.66.494 1.177 0 1.08-.672 1.619-2.016 1.619zM23.058 37v-1.684h-4.726V32.75h4.02v-1.671h-4.02v-2.395h4.546V27H16.43v10h6.626zm5.05 0v-6.921L33.218 37h1.747V27h-1.862v6.947L27.993 27h-1.747v10h1.862zm14.759 0v-8.342H46V27h-8.231v1.658h3.133V37h1.965z" fill="#343D42" fill-rule="nonzero"/><path d="M29.126 4.751L37 19h0-21l7.874-14.249a3 3 0 015.252 0z" stroke="#343D42" stroke-width="2"/><circle stroke="#343D42" stroke-width="1.5" fill="#FFF" cx="26.5" cy="4.5" r="2.5"/></g></svg>